<svg width="88" height="101" viewBox="0 0 88 101" fill="none" xmlns="http://www.w3.org/2000/svg">
<path d="M70.8984 38C73.6328 37.0885 76.3021 37.0885 78.9062 38C81.5104 38.9115 83.5938 40.5391 85.1562 42.8828C86.849 45.0964 87.6953 47.6354 87.6953 50.5V64.1719C87.6953 65.2135 87.5651 66.1901 87.3047 67.1016L82.0312 90.3438C81.3802 93.3385 79.8177 95.7474 77.3438 97.5703C75 99.5234 72.3307 100.5 69.3359 100.5H29.2969C24.2188 100.5 20.4427 98.2865 17.9688 93.8594L7.22656 74.7188C3.58073 68.3385 5.20833 62.349 12.1094 56.75L1.17188 28.4297C-0.260417 24.6536 -0.195312 20.9427 1.36719 17.2969C2.92969 13.651 5.53385 11.112 9.17969 9.67969C11.7839 8.76823 14.2578 8.50781 16.6016 8.89844C19.0755 9.15885 21.2891 10.1354 23.2422 11.8281C25.3255 13.3906 26.8229 15.4089 27.7344 17.8828L31.4453 33.3125L29.6875 14.9531C29.6875 10.9167 31.0547 7.53125 33.7891 4.79688C36.6536 1.93229 40.0391 0.5 43.9453 0.5C47.8516 0.5 51.1719 1.93229 53.9062 4.79688C56.7708 7.53125 58.2031 10.9167 58.2031 14.9531V32.1406C60.8073 31.75 63.2161 32.1406 65.4297 33.3125C67.7734 34.3542 69.5964 35.9167 70.8984 38ZM78.3203 64.1719V50.5C78.3203 48.9375 77.7344 47.8307 76.5625 47.1797C75.3906 46.5286 74.1536 46.5286 72.8516 47.1797C71.6797 47.8307 71.0938 48.9375 71.0938 50.5C71.0938 51.4115 70.7682 52.1927 70.1172 52.8438C69.5964 53.3646 68.8802 53.625 67.9688 53.625H66.7969C65.8854 53.625 65.1042 53.3646 64.4531 52.8438C63.9323 52.1927 63.6719 51.4115 63.6719 50.5V45.0312C63.6719 43.4688 63.0208 42.362 61.7188 41.7109C60.5469 41.0599 59.375 41.0599 58.2031 41.7109C57.0312 42.362 56.4453 43.4688 56.4453 45.0312V50.5C56.4453 51.4115 56.1198 52.1927 55.4688 52.8438C54.9479 53.3646 54.2318 53.625 53.3203 53.625H51.9531C51.1719 53.625 50.4557 53.3646 49.8047 52.8438C49.1536 52.1927 48.8281 51.4115 48.8281 50.5V14.9531C48.8281 12.8698 47.9818 11.3724 46.2891 10.4609C44.7266 9.54948 43.099 9.54948 41.4062 10.4609C39.8438 11.3724 39.0625 12.8698 39.0625 14.9531V50.5C39.0625 51.4115 38.737 52.1927 38.0859 52.8438C37.4349 53.3646 36.7188 53.625 35.9375 53.625H33.5938C32.1615 53.625 31.1849 52.974 30.6641 51.6719L19.1406 21.2031C18.3594 19.25 17.0573 18.2083 15.2344 18.0781C13.4115 17.8177 11.849 18.4036 10.5469 19.8359C9.375 21.2682 9.17969 23.026 9.96094 25.1094L22.4609 57.5312C22.5911 57.9219 22.6562 58.3125 22.6562 58.7031C22.6562 59.6146 22.2656 60.3958 21.4844 61.0469L16.2109 65.3438C14.6484 66.6458 14.388 68.2734 15.4297 70.2266L26.1719 89.3672C26.8229 90.5391 27.8646 91.125 29.2969 91.125H69.3359C71.2891 91.125 72.4609 90.1484 72.8516 88.1953L78.125 64.9531C78.2552 64.6927 78.3203 64.4323 78.3203 64.1719Z" fill="#F02F02"/>
</svg>
