<svg width="185" height="81" viewBox="0 0 185 81" fill="none" xmlns="http://www.w3.org/2000/svg">
<path d="M20.041 35V7.98438H29.7451C33.221 7.98438 35.862 8.62142 37.668 9.89551C39.4863 11.1696 40.3955 13.0189 40.3955 15.4434C40.3955 16.8411 40.0739 18.0348 39.4307 19.0244C38.7874 20.014 37.8411 20.7438 36.5918 21.2139C38.002 21.585 39.0843 22.2777 39.8389 23.292C40.5934 24.3063 40.9707 25.5433 40.9707 27.0029C40.9707 29.6501 40.1296 31.6416 38.4473 32.9775C36.7773 34.3011 34.2972 34.9753 31.0068 35H20.041ZM26.5537 23.5146V29.9902H30.8213C31.9964 29.9902 32.8994 29.7243 33.5303 29.1924C34.1611 28.6481 34.4766 27.8874 34.4766 26.9102C34.4766 24.6589 33.3571 23.527 31.1182 23.5146H26.5537ZM26.5537 19.2471H29.9492C31.3717 19.2347 32.3861 18.9749 32.9922 18.4678C33.5983 17.9606 33.9014 17.2122 33.9014 16.2227C33.9014 15.0846 33.5736 14.2682 32.918 13.7734C32.2624 13.2663 31.2048 13.0127 29.7451 13.0127H26.5537V19.2471ZM59.915 29.9531H50.9902L49.4316 35H42.4736L52.3818 7.98438H58.5049L68.4873 35H61.4922L59.915 29.9531ZM52.5488 24.9248H58.3564L55.4434 15.5547L52.5488 24.9248ZM80.5107 25.4629H76.9854V35H70.4727V7.98438H81.1045C84.3083 7.98438 86.8132 8.69564 88.6191 10.1182C90.4251 11.5407 91.3281 13.5508 91.3281 16.1484C91.3281 18.0286 90.9447 19.5872 90.1777 20.8242C89.4232 22.0612 88.2357 23.0632 86.6152 23.8301L92.2559 34.7217V35H85.2793L80.5107 25.4629ZM76.9854 20.4346H81.1045C82.3415 20.4346 83.2692 20.113 83.8877 19.4697C84.5186 18.8141 84.834 17.9049 84.834 16.7422C84.834 15.5794 84.5186 14.6702 83.8877 14.0146C83.2568 13.3467 82.3291 13.0127 81.1045 13.0127H76.9854V20.4346ZM95.2617 35V7.98438H104.966C108.442 7.98438 111.083 8.62142 112.889 9.89551C114.707 11.1696 115.616 13.0189 115.616 15.4434C115.616 16.8411 115.295 18.0348 114.651 19.0244C114.008 20.014 113.062 20.7438 111.812 21.2139C113.223 21.585 114.305 22.2777 115.06 23.292C115.814 24.3063 116.191 25.5433 116.191 27.0029C116.191 29.6501 115.35 31.6416 113.668 32.9775C111.998 34.3011 109.518 34.9753 106.228 35H95.2617ZM101.774 23.5146V29.9902H106.042C107.217 29.9902 108.12 29.7243 108.751 29.1924C109.382 28.6481 109.697 27.8874 109.697 26.9102C109.697 24.6589 108.578 23.527 106.339 23.5146H101.774ZM101.774 19.2471H105.17C106.592 19.2347 107.607 18.9749 108.213 18.4678C108.819 17.9606 109.122 17.2122 109.122 16.2227C109.122 15.0846 108.794 14.2682 108.139 13.7734C107.483 13.2663 106.425 13.0127 104.966 13.0127H101.774V19.2471ZM136.546 23.5518H126.304V29.9902H138.401V35H119.791V7.98438H138.438V13.0127H126.304V18.709H136.546V23.5518ZM151.093 25.4629H147.567V35H141.055V7.98438H151.687C154.89 7.98438 157.395 8.69564 159.201 10.1182C161.007 11.5407 161.91 13.5508 161.91 16.1484C161.91 18.0286 161.527 19.5872 160.76 20.8242C160.005 22.0612 158.818 23.0632 157.197 23.8301L162.838 34.7217V35H155.861L151.093 25.4629ZM147.567 20.4346H151.687C152.924 20.4346 153.851 20.113 154.47 19.4697C155.101 18.8141 155.416 17.9049 155.416 16.7422C155.416 15.5794 155.101 14.6702 154.47 14.0146C153.839 13.3467 152.911 13.0127 151.687 13.0127H147.567V20.4346Z" fill="white"/>
<path d="M31.1035 55.7432L35.1807 33.4531H43.6768L36.1328 69H27.2461L22.4854 48.7363L17.8223 69H8.95996L1.3916 33.4531H9.91211L13.9893 55.7432L18.8721 33.4531H26.1475L31.1035 55.7432ZM78.8818 51.959C78.8818 55.4258 78.2389 58.4938 76.9531 61.1631C75.6673 63.8324 73.8363 65.8913 71.46 67.3398C69.0999 68.7721 66.4062 69.4883 63.3789 69.4883C60.3516 69.4883 57.666 68.7965 55.3223 67.4131C52.9785 66.0133 51.1475 64.0195 49.8291 61.4316C48.527 58.8438 47.8434 55.8734 47.7783 52.5205V50.5186C47.7783 47.0355 48.4131 43.9674 49.6826 41.3145C50.9684 38.6452 52.7995 36.5863 55.1758 35.1377C57.5684 33.6891 60.2865 32.9648 63.3301 32.9648C66.3411 32.9648 69.0267 33.681 71.3867 35.1133C73.7467 36.5456 75.5778 38.5882 76.8799 41.2412C78.1982 43.8779 78.8656 46.9053 78.8818 50.3232V51.959ZM70.166 50.4697C70.166 46.9378 69.5719 44.2604 68.3838 42.4375C67.2119 40.5983 65.5273 39.6787 63.3301 39.6787C59.0332 39.6787 56.7627 42.9014 56.5186 49.3467L56.4941 51.959C56.4941 55.4421 57.0719 58.1195 58.2275 59.9912C59.3831 61.863 61.1003 62.7988 63.3789 62.7988C65.5436 62.7988 67.2119 61.8792 68.3838 60.04C69.5557 58.2008 70.1497 55.556 70.166 52.1055V50.4697ZM115.161 51.959C115.161 55.4258 114.518 58.4938 113.232 61.1631C111.947 63.8324 110.116 65.8913 107.739 67.3398C105.379 68.7721 102.686 69.4883 99.6582 69.4883C96.6309 69.4883 93.9453 68.7965 91.6016 67.4131C89.2578 66.0133 87.4268 64.0195 86.1084 61.4316C84.8063 58.8438 84.1227 55.8734 84.0576 52.5205V50.5186C84.0576 47.0355 84.6924 43.9674 85.9619 41.3145C87.2477 38.6452 89.0788 36.5863 91.4551 35.1377C93.8477 33.6891 96.5658 32.9648 99.6094 32.9648C102.62 32.9648 105.306 33.681 107.666 35.1133C110.026 36.5456 111.857 38.5882 113.159 41.2412C114.478 43.8779 115.145 46.9053 115.161 50.3232V51.959ZM106.445 50.4697C106.445 46.9378 105.851 44.2604 104.663 42.4375C103.491 40.5983 101.807 39.6787 99.6094 39.6787C95.3125 39.6787 93.042 42.9014 92.7979 49.3467L92.7734 51.959C92.7734 55.4421 93.3512 58.1195 94.5068 59.9912C95.6624 61.863 97.3796 62.7988 99.6582 62.7988C101.823 62.7988 103.491 61.8792 104.663 60.04C105.835 58.2008 106.429 55.556 106.445 52.1055V50.4697ZM121.338 69V33.4531H132.788C135.929 33.4531 138.753 34.1693 141.26 35.6016C143.766 37.0176 145.719 39.0277 147.119 41.6318C148.535 44.2197 149.251 47.125 149.268 50.3477V51.9834C149.268 55.2386 148.576 58.1602 147.192 60.748C145.825 63.3197 143.888 65.3379 141.382 66.8027C138.892 68.2513 136.108 68.9837 133.032 69H121.338ZM129.907 40.0693V62.4082H132.886C135.343 62.4082 137.231 61.5374 138.55 59.7959C139.868 58.0381 140.527 55.4339 140.527 51.9834V50.4453C140.527 47.0111 139.868 44.4232 138.55 42.6816C137.231 40.9401 135.311 40.0693 132.788 40.0693H129.907ZM173.755 59.5518C173.755 58.2985 173.307 57.3219 172.412 56.6221C171.533 55.9222 169.979 55.1979 167.749 54.4492C165.519 53.7005 163.696 52.9762 162.28 52.2764C157.674 50.014 155.371 46.9053 155.371 42.9502C155.371 40.9808 155.941 39.2474 157.08 37.75C158.236 36.2363 159.863 35.0645 161.963 34.2344C164.062 33.388 166.423 32.9648 169.043 32.9648C171.598 32.9648 173.885 33.4206 175.903 34.332C177.938 35.2435 179.517 36.5456 180.64 38.2383C181.763 39.9147 182.324 41.8353 182.324 44H173.779C173.779 42.5514 173.332 41.4284 172.437 40.6309C171.558 39.8333 170.361 39.4346 168.848 39.4346C167.318 39.4346 166.105 39.7764 165.21 40.46C164.331 41.1273 163.892 41.9818 163.892 43.0234C163.892 43.9349 164.38 44.765 165.356 45.5137C166.333 46.2461 168.05 47.0111 170.508 47.8086C172.965 48.5898 174.984 49.4362 176.562 50.3477C180.404 52.5612 182.324 55.613 182.324 59.5029C182.324 62.6117 181.152 65.0531 178.809 66.8271C176.465 68.6012 173.25 69.4883 169.165 69.4883C166.284 69.4883 163.672 68.9756 161.328 67.9502C159.001 66.9085 157.243 65.4925 156.055 63.7021C154.883 61.8955 154.297 59.8203 154.297 57.4766H162.891C162.891 59.3809 163.379 60.7887 164.355 61.7002C165.348 62.5954 166.951 63.043 169.165 63.043C170.581 63.043 171.696 62.7419 172.51 62.1396C173.34 61.5212 173.755 60.6585 173.755 59.5518Z" fill="white"/>
</svg>
