<svg width="130" height="57" viewBox="0 0 130 57" fill="none" xmlns="http://www.w3.org/2000/svg">
<path d="M18.3428 23V5.22656H24.7271C27.0138 5.22656 28.7513 5.64567 29.9395 6.48389C31.1357 7.3221 31.7339 8.53874 31.7339 10.1338C31.7339 11.0534 31.5223 11.8387 31.0991 12.4897C30.6759 13.1408 30.0534 13.6209 29.2314 13.9302C30.1592 14.1743 30.8713 14.63 31.3677 15.2974C31.8641 15.9647 32.1123 16.7785 32.1123 17.7388C32.1123 19.4803 31.5589 20.7905 30.4521 21.6694C29.3535 22.5402 27.7218 22.9837 25.5571 23H18.3428ZM22.6274 15.4438V19.7041H25.4351C26.2082 19.7041 26.8022 19.5291 27.2173 19.1792C27.6323 18.8211 27.8398 18.3206 27.8398 17.6777C27.8398 16.1966 27.1034 15.452 25.6304 15.4438H22.6274ZM22.6274 12.6362H24.8613C25.7972 12.6281 26.4645 12.4572 26.8633 12.1235C27.262 11.7899 27.4614 11.2975 27.4614 10.6465C27.4614 9.89779 27.2458 9.36068 26.8145 9.03516C26.3831 8.7015 25.6873 8.53467 24.7271 8.53467H22.6274V12.6362ZM44.5757 19.6797H38.7041L37.6787 23H33.1011L39.6196 5.22656H43.6479L50.2153 23H45.6133L44.5757 19.6797ZM39.7295 16.3716H43.5503L41.6338 10.207L39.7295 16.3716ZM58.1255 16.7256H55.8062V23H51.5215V5.22656H58.5161C60.6239 5.22656 62.2718 5.6945 63.46 6.63037C64.6481 7.56624 65.2422 8.88867 65.2422 10.5977C65.2422 11.8346 64.9899 12.86 64.4854 13.6738C63.9889 14.4876 63.2077 15.1468 62.1416 15.6514L65.8525 22.8169V23H61.2627L58.1255 16.7256ZM55.8062 13.4175H58.5161C59.3299 13.4175 59.9403 13.2059 60.3472 12.7827C60.7622 12.3514 60.9697 11.7533 60.9697 10.9883C60.9697 10.2233 60.7622 9.62516 60.3472 9.19385C59.9321 8.75439 59.3218 8.53467 58.5161 8.53467H55.8062V13.4175ZM67.8301 23V5.22656H74.2144C76.5011 5.22656 78.2386 5.64567 79.4268 6.48389C80.623 7.3221 81.2212 8.53874 81.2212 10.1338C81.2212 11.0534 81.0096 11.8387 80.5864 12.4897C80.1632 13.1408 79.5407 13.6209 78.7188 13.9302C79.6465 14.1743 80.3586 14.63 80.855 15.2974C81.3514 15.9647 81.5996 16.7785 81.5996 17.7388C81.5996 19.4803 81.0462 20.7905 79.9395 21.6694C78.8408 22.5402 77.2091 22.9837 75.0444 23H67.8301ZM72.1147 15.4438V19.7041H74.9224C75.6955 19.7041 76.2896 19.5291 76.7046 19.1792C77.1196 18.8211 77.3271 18.3206 77.3271 17.6777C77.3271 16.1966 76.5907 15.452 75.1177 15.4438H72.1147ZM72.1147 12.6362H74.3486C75.2845 12.6281 75.9518 12.4572 76.3506 12.1235C76.7493 11.7899 76.9487 11.2975 76.9487 10.6465C76.9487 9.89779 76.7331 9.36068 76.3018 9.03516C75.8704 8.7015 75.1746 8.53467 74.2144 8.53467H72.1147V12.6362ZM94.9907 15.4683H88.2524V19.7041H96.2114V23H83.9678V5.22656H96.2358V8.53467H88.2524V12.2822H94.9907V15.4683ZM104.561 16.7256H102.242V23H97.957V5.22656H104.952C107.059 5.22656 108.707 5.6945 109.896 6.63037C111.084 7.56624 111.678 8.88867 111.678 10.5977C111.678 11.8346 111.425 12.86 110.921 13.6738C110.424 14.4876 109.643 15.1468 108.577 15.6514L112.288 22.8169V23H107.698L104.561 16.7256ZM102.242 13.4175H104.952C105.765 13.4175 106.376 13.2059 106.783 12.7827C107.198 12.3514 107.405 11.7533 107.405 10.9883C107.405 10.2233 107.198 9.62516 106.783 9.19385C106.368 8.75439 105.757 8.53467 104.952 8.53467H102.242V13.4175Z" fill="black"/>
<path d="M21.7725 38.7202L24.6265 23.1172H30.5737L25.293 48H19.0723L15.7397 33.8154L12.4756 48H6.27197L0.974121 23.1172H6.93848L9.79248 38.7202L13.2104 23.1172H18.3032L21.7725 38.7202ZM55.2173 36.0713C55.2173 38.498 54.7673 40.6457 53.8672 42.5142C52.9671 44.3826 51.6854 45.8239 50.022 46.8379C48.37 47.8405 46.4844 48.3418 44.3652 48.3418C42.2461 48.3418 40.3662 47.8576 38.7256 46.8892C37.085 45.9093 35.8032 44.5137 34.8804 42.7021C33.9689 40.8906 33.4904 38.8114 33.4448 36.4644V35.063C33.4448 32.6248 33.8892 30.4772 34.7778 28.6201C35.6779 26.7516 36.9596 25.3104 38.623 24.2964C40.2979 23.2824 42.2005 22.7754 44.3311 22.7754C46.4388 22.7754 48.3187 23.2767 49.9707 24.2793C51.6227 25.2819 52.9045 26.7118 53.8159 28.5688C54.7388 30.4146 55.2059 32.5337 55.2173 34.9263V36.0713ZM49.1162 35.0288C49.1162 32.5565 48.7004 30.6823 47.8687 29.4062C47.0483 28.1188 45.8691 27.4751 44.3311 27.4751C41.3232 27.4751 39.7339 29.731 39.563 34.2427L39.5459 36.0713C39.5459 38.5094 39.9504 40.3836 40.7593 41.6938C41.5682 43.0041 42.7702 43.6592 44.3652 43.6592C45.8805 43.6592 47.0483 43.0155 47.8687 41.728C48.689 40.4406 49.1048 38.5892 49.1162 36.1738V35.0288ZM80.6128 36.0713C80.6128 38.498 80.1628 40.6457 79.2627 42.5142C78.3626 44.3826 77.0809 45.8239 75.4175 46.8379C73.7655 47.8405 71.8799 48.3418 69.7607 48.3418C67.6416 48.3418 65.7617 47.8576 64.1211 46.8892C62.4805 45.9093 61.1987 44.5137 60.2759 42.7021C59.3644 40.8906 58.8859 38.8114 58.8403 36.4644V35.063C58.8403 32.6248 59.2847 30.4772 60.1733 28.6201C61.0734 26.7516 62.3551 25.3104 64.0186 24.2964C65.6934 23.2824 67.596 22.7754 69.7266 22.7754C71.8343 22.7754 73.7142 23.2767 75.3662 24.2793C77.0182 25.2819 78.3 26.7118 79.2114 28.5688C80.1343 30.4146 80.6014 32.5337 80.6128 34.9263V36.0713ZM74.5117 35.0288C74.5117 32.5565 74.0959 30.6823 73.2642 29.4062C72.4438 28.1188 71.2646 27.4751 69.7266 27.4751C66.7188 27.4751 65.1294 29.731 64.9585 34.2427L64.9414 36.0713C64.9414 38.5094 65.3459 40.3836 66.1548 41.6938C66.9637 43.0041 68.1657 43.6592 69.7607 43.6592C71.276 43.6592 72.4438 43.0155 73.2642 41.728C74.0845 40.4406 74.5003 38.5892 74.5117 36.1738V35.0288ZM84.9365 48V23.1172H92.9517C95.1506 23.1172 97.1273 23.6185 98.8818 24.6211C100.636 25.6123 102.004 27.0194 102.983 28.8423C103.975 30.6538 104.476 32.6875 104.487 34.9434V36.0884C104.487 38.367 104.003 40.4121 103.035 42.2236C102.078 44.0238 100.722 45.4365 98.9673 46.4619C97.2241 47.4759 95.2759 47.9886 93.1226 48H84.9365ZM90.9351 27.7485V43.3857H93.02C94.7404 43.3857 96.062 42.7762 96.9849 41.5571C97.9077 40.3267 98.3691 38.5037 98.3691 36.0884V35.0117C98.3691 32.6077 97.9077 30.7962 96.9849 29.5771C96.062 28.3581 94.7176 27.7485 92.9517 27.7485H90.9351ZM121.628 41.3862C121.628 40.509 121.315 39.8254 120.688 39.3354C120.073 38.8455 118.985 38.3385 117.424 37.8145C115.863 37.2904 114.587 36.7834 113.596 36.2935C110.372 34.7098 108.76 32.5337 108.76 29.7651C108.76 28.3866 109.159 27.1732 109.956 26.125C110.765 25.0654 111.904 24.2451 113.374 23.6641C114.844 23.0716 116.496 22.7754 118.33 22.7754C120.119 22.7754 121.72 23.0944 123.132 23.7324C124.556 24.3704 125.662 25.2819 126.448 26.4668C127.234 27.6403 127.627 28.9847 127.627 30.5H121.646C121.646 29.486 121.332 28.6999 120.706 28.1416C120.09 27.5833 119.253 27.3042 118.193 27.3042C117.122 27.3042 116.274 27.5435 115.647 28.022C115.032 28.4891 114.724 29.0872 114.724 29.8164C114.724 30.4544 115.066 31.0355 115.75 31.5596C116.433 32.0723 117.635 32.6077 119.355 33.166C121.076 33.7129 122.489 34.3053 123.594 34.9434C126.283 36.4928 127.627 38.6291 127.627 41.3521C127.627 43.5282 126.807 45.2371 125.166 46.479C123.525 47.7209 121.275 48.3418 118.416 48.3418C116.399 48.3418 114.57 47.9829 112.93 47.2651C111.3 46.536 110.07 45.5448 109.238 44.2915C108.418 43.0269 108.008 41.5742 108.008 39.9336H114.023C114.023 41.2666 114.365 42.2521 115.049 42.8901C115.744 43.5168 116.866 43.8301 118.416 43.8301C119.407 43.8301 120.187 43.6193 120.757 43.1978C121.338 42.7648 121.628 42.161 121.628 41.3862Z" fill="black"/>
</svg>
